<svg viewBox="0 0 62 39" fill="none" xmlns="http://www.w3.org/2000/svg" class="main-header-logo"><path fill="#19223C" d="M33.2502.0546l-31.103 19.58c-1.465.886-2.181 1.878-2.146 2.977v2.98c.035 1.1.768 2.075 2.2 2.926l15.393 8.885a.726.726 0 001.047-.373l3.456-8.352-7.33-4.15a1.3164 1.3164 0 01-.514-.477 1.3451 1.3451 0 01-.1603-1.0286 1.3446 1.3446 0 01.6213-.8354l13.457-8.247 5.549-13.512a.3244.3244 0 00-.103-.36.31.31 0 00-.369-.013h.002z"/><path d="M58.8002 10.9616l-15.182-9.204a.7258.7258 0 00-1.047.32l-3.56 8.352 7.225 4.31c.208.113.381.282.502.488a1.3475 1.3475 0 010 1.363 1.3175 1.3175 0 01-.502.49l-13.561 7.98-5.76 13.407a.3232.3232 0 00.026.452.3113.3113 0 00.228.0805.3114.3114 0 00.217-.1065l9.949-6.012 3.927 5.64a.9452.9452 0 00.3393.3108.9455.9455 0 00.4457.1142h9.425a.9316.9316 0 00.832-.506.9698.9698 0 00-.047-.984l-6.388-9.79 12.933-7.82c1.466-.887 2.199-1.88 2.199-2.98v-2.926c0-1.1-.733-2.092-2.2-2.979h-.001z" fill="#67A4AC"/></svg>